<?xml version="1.0" encoding="utf-8"?>
<svg viewBox="0 0 500 500" xmlns="http://www.w3.org/2000/svg">
  <path style="stroke: rgb(0, 0, 0);" d="M 256.62 190.926 C 256.62 190.926 97.974 385.004 73.037 423.494 C 49.898 459.208 69.064 453.503 87.599 430.114 C 106.134 406.725 267.211 195.78 267.211 195.78 C 267.211 195.78 276.038 171.067 256.62 190.926 Z" transform="matrix(1, 0, 0, 1, 3.552713678800501e-15, 0)"/>
  <path style="stroke: rgb(0, 0, 0);" d="M 314.774 187.897 C 314.774 187.897 156.128 381.975 131.191 420.465 C 108.052 456.179 127.218 450.474 145.753 427.085 C 164.288 403.696 325.365 192.751 325.365 192.751 C 325.365 192.751 334.192 168.038 314.774 187.897 Z" transform="matrix(1, 0, 0, 1, 3.552713678800501e-15, 0)"/>
  <path style="stroke: rgb(0, 0, 0);" d="M 362.876 189.332 C 362.876 189.332 204.23 383.41 179.293 421.9 C 156.154 457.614 175.32 451.909 193.855 428.52 C 212.39 405.131 373.467 194.186 373.467 194.186 C 373.467 194.186 382.294 169.473 362.876 189.332 Z" transform="matrix(1, 0, 0, 1, 3.552713678800501e-15, 0)"/>
  <path style="stroke: rgb(0, 0, 0);" d="M 408.772 193.745 C 408.772 193.745 250.126 387.823 225.189 426.313 C 202.05 462.027 221.216 456.322 239.751 432.933 C 258.286 409.544 419.363 198.599 419.363 198.599 C 419.363 198.599 428.19 173.886 408.772 193.745 Z" transform="matrix(1, 0, 0, 1, 3.552713678800501e-15, 0)"/>
  <path style="stroke: rgb(0, 0, 0);" d="M 335.302 424.91 C 335.302 424.91 68.324 384.054 26.358 375.952 C -12.583 368.434 19.672 369.636 50.864 374.559 C 82.054 379.482 353.125 423.889 353.125 423.889 C 353.125 423.889 367.978 429.091 335.302 424.91 Z" transform="matrix(1, 0, 0, 1, 3.552713678800501e-15, 0)"/>
  <path style="stroke: rgb(0, 0, 0);" d="M 370.165 376.585 C 370.165 376.585 103.187 335.729 61.221 327.627 C 22.28 320.109 54.535 321.311 85.727 326.234 C 116.917 331.157 387.988 375.564 387.988 375.564 C 387.988 375.564 402.841 380.766 370.165 376.585 Z" transform="matrix(1, 0, 0, 1, 3.552713678800501e-15, 0)"/>
  <path style="stroke: rgb(0, 0, 0);" d="M 360.456 399.091 C 360.456 399.091 93.478 358.235 51.512 350.133 C 12.571 342.615 44.826 343.817 76.018 348.74 C 107.208 353.663 378.279 398.07 378.279 398.07 C 378.279 398.07 393.132 403.272 360.456 399.091 Z" transform="matrix(1, 0, 0, 1, 3.552713678800501e-15, 0)"/>
  <path style="stroke: rgb(0, 0, 0);" d="M 390.024 355.403 C 390.024 355.403 123.046 314.547 81.08 306.445 C 42.139 298.927 74.394 300.129 105.586 305.052 C 136.776 309.975 407.847 354.382 407.847 354.382 C 407.847 354.382 422.7 359.584 390.024 355.403 Z" transform="matrix(1, 0, 0, 1, 3.552713678800501e-15, 0)"/>
  <path style="stroke: rgb(0, 0, 0);" d="M 412.972 328.483 C 412.972 328.483 145.994 287.627 104.028 279.525 C 65.087 272.007 97.342 273.209 128.534 278.132 C 159.724 283.055 430.795 327.462 430.795 327.462 C 430.795 327.462 445.648 332.664 412.972 328.483 Z" transform="matrix(1, 0, 0, 1, 3.552713678800501e-15, 0)"/>
  <path style="stroke: rgb(0, 0, 0);" d="M 429.3 299.356 C 429.3 299.356 162.322 258.5 120.356 250.398 C 81.415 242.88 113.67 244.082 144.862 249.005 C 176.052 253.928 447.123 298.335 447.123 298.335 C 447.123 298.335 461.976 303.537 429.3 299.356 Z" transform="matrix(1, 0, 0, 1, 3.552713678800501e-15, 0)"/>
  <path style="stroke: rgb(0, 0, 0);" d="M 450.924 272.437 C 450.924 272.437 183.946 231.581 141.98 223.479 C 103.039 215.961 135.294 217.163 166.486 222.086 C 197.676 227.009 468.747 271.416 468.747 271.416 C 468.747 271.416 483.6 276.618 450.924 272.437 Z" transform="matrix(1, 0, 0, 1, 3.552713678800501e-15, 0)"/>
  <path style="stroke: rgb(0, 0, 0);" d="M 464.604 245.958 C 464.604 245.958 197.626 205.102 155.66 197 C 116.719 189.482 148.974 190.684 180.166 195.607 C 211.356 200.53 482.427 244.937 482.427 244.937 C 482.427 244.937 497.28 250.139 464.604 245.958 Z" transform="matrix(1, 0, 0, 1, 3.552713678800501e-15, 0)"/>
  <path style="stroke: rgb(0, 0, 0);" d="M 216.803 173.886 C 216.803 173.886 58.157 367.964 33.22 406.454 C 10.081 442.168 29.247 436.463 47.782 413.074 C 66.317 389.685 227.394 178.74 227.394 178.74 C 227.394 178.74 236.221 154.027 216.803 173.886 Z" transform="matrix(1, 0, 0, 1, 3.552713678800501e-15, 0)"/>
  <path style="stroke: rgb(0, 0, 0);" d="M 457.756 203.012 C 457.756 203.012 299.11 397.09 274.173 435.58 C 251.034 471.294 270.2 465.589 288.735 442.2 C 307.27 418.811 468.347 207.866 468.347 207.866 C 468.347 207.866 477.174 183.153 457.756 203.012 Z" transform="matrix(1, 0, 0, 1, 3.552713678800501e-15, 0)"/>
</svg>